<?xml version="1.0" encoding="UTF-8" standalone="no"?>
<!DOCTYPE svg PUBLIC "-//W3C//DTD SVG 1.1//EN" "http://www.w3.org/Graphics/SVG/1.1/DTD/svg11.dtd">
<svg width="100%" height="100%" viewBox="0 0 256 256" version="1.1" xmlns="http://www.w3.org/2000/svg" xmlns:xlink="http://www.w3.org/1999/xlink" xml:space="preserve" xmlns:serif="http://www.serif.com/" style="fill-rule:evenodd;clip-rule:evenodd;stroke-linejoin:round;stroke-miterlimit:2;">
    <g transform="matrix(0.9,0,0,1.00827,23.1302,-13.3293)">
        <rect x="27.633" y="44.957" width="213.333" height="190.425" style="fill:rgb(0,181,226);"/>
    </g>
    <g transform="matrix(1.77381,0,0,1.30957,141.714,-20.5)">
        <rect x="19.329" y="40.089" width="36.081" height="146.613" style="fill:rgb(33,35,34);fill-opacity:0.3;"/>
    </g>
    <g transform="matrix(1.77381,0,0,1.30957,77.7143,-20.5)">
        <rect x="19.329" y="40.089" width="36.081" height="146.613" style="fill:rgb(33,35,34);fill-opacity:0.15;"/>
    </g>
    <g transform="matrix(5.32143,0,0,0.436523,-54.8571,14.5)">
        <rect x="19.329" y="40.089" width="36.081" height="146.613" style="fill:rgb(33,35,34);fill-opacity:0.1;"/>
    </g>
    <g transform="matrix(1.33036,0,0,0.327393,94.2857,154.875)">
        <rect x="19.329" y="40.089" width="36.081" height="146.613" style="fill:rgb(255,130,0);"/>
    </g>
    <g transform="matrix(1.33036,0,0,0.327393,158.286,90.875)">
        <rect x="19.329" y="40.089" width="36.081" height="146.613" style="fill:rgb(196,214,0);"/>
    </g>
    <g transform="matrix(0.6,0,0,0.67218,-0.579866,33.7805)">
        <rect x="27.633" y="44.957" width="213.333" height="190.425" style="fill:rgb(0,56,101);"/>
        <g transform="matrix(1.66667,0,0,1.4877,-2.69292,26.4829)">
            <g transform="matrix(144,0,0,144,46.5556,113.066)">
                <path d="M0.256,-0.517C0.297,-0.517 0.332,-0.51 0.363,-0.496C0.393,-0.481 0.416,-0.461 0.433,-0.436C0.449,-0.41 0.457,-0.381 0.457,-0.348L0.457,-0.01C0.457,-0.003 0.454,-0 0.447,-0L0.371,-0C0.364,-0 0.361,-0.003 0.361,-0.01L0.361,-0.046C0.361,-0.049 0.359,-0.05 0.356,-0.048C0.339,-0.03 0.318,-0.016 0.293,-0.007C0.268,0.003 0.24,0.008 0.209,0.008C0.16,0.008 0.119,-0.005 0.086,-0.029C0.054,-0.055 0.038,-0.092 0.038,-0.143C0.038,-0.195 0.056,-0.236 0.093,-0.266C0.129,-0.295 0.18,-0.31 0.245,-0.31L0.357,-0.31C0.36,-0.31 0.361,-0.311 0.361,-0.314L0.361,-0.341C0.361,-0.37 0.353,-0.393 0.336,-0.409C0.319,-0.426 0.293,-0.434 0.258,-0.434C0.23,-0.434 0.207,-0.429 0.19,-0.418C0.172,-0.406 0.161,-0.392 0.157,-0.373C0.155,-0.366 0.151,-0.363 0.145,-0.364L0.064,-0.375C0.057,-0.376 0.054,-0.379 0.055,-0.383C0.06,-0.422 0.081,-0.455 0.118,-0.48C0.155,-0.504 0.201,-0.517 0.256,-0.517ZM0.23,-0.073C0.265,-0.073 0.296,-0.082 0.322,-0.101C0.348,-0.12 0.361,-0.143 0.361,-0.172L0.361,-0.231C0.361,-0.234 0.36,-0.235 0.357,-0.235L0.263,-0.235C0.224,-0.235 0.192,-0.227 0.169,-0.212C0.146,-0.197 0.134,-0.175 0.134,-0.148C0.134,-0.123 0.143,-0.105 0.161,-0.092C0.178,-0.079 0.201,-0.073 0.23,-0.073Z" style="fill:white;fill-rule:nonzero;"/>
            </g>
        </g>
    </g>
</svg>
